<?xml version="1.0" encoding="UTF-8"?><svg id="a" xmlns="http://www.w3.org/2000/svg" xmlns:xlink="http://www.w3.org/1999/xlink" viewBox="0 0 400 400"><defs><style>.c{fill:url(#b);}</style><linearGradient id="b" x1="59.9897" y1="340.4494" x2="339.9789" y2="63.5081" gradientTransform="translate(0 402) scale(1 -1)" gradientUnits="userSpaceOnUse"><stop offset="0" stop-color="#eecfaa"/><stop offset="1" stop-color="#dca056"/></linearGradient></defs><path class="c" d="M328.0237,226.386l10.458-6.018c-9.866,67.572-68.23,119.632-138.509,119.632s-125.6833-49.473-137.6761-114.556l94.8571-54.582,.121,.208v104.746l1.37,.778,32.317,18.636V151.623l14.733-8.496,33.194-19.162-.877-.515-32.317-18.636-7.356-4.242-7.355,4.231-119.1389,68.493-10.3266,5.941c10.0635-67.374,68.2955-119.237,138.4545-119.237s125.464,49.331,137.61,114.195l-23.141,13.33-71.815,41.306v-85.835l-33.687,19.436v132.853l33.687-19.458,85.507-49.331-.11-.11Z"/></svg>